<?xml version="1.0" encoding="utf-8"?>
<!-- Generator: Adobe Illustrator 22.1.0, SVG Export Plug-In . SVG Version: 6.00 Build 0)  -->
<svg version="1.1" id="Calque_1" xmlns="http://www.w3.org/2000/svg" xmlns:xlink="http://www.w3.org/1999/xlink" x="0px" y="0px"
	 viewBox="0 0 165 26" style="enable-background:new 0 0 165 26;" xml:space="preserve">
<style type="text/css">
	.st0{fill:#FFFFFF;}
</style>
<desc>Cowboy</desc>
<g transform="translate(0.000000, 0.044603)">
	<path class="st0" d="M12.4,20.7c-2.3,0-4.3-0.8-5.9-2.3c-1.6-1.6-2.3-3.6-2.3-5.9c0-2.4,0.8-4.4,2.3-5.9c1.6-1.6,3.6-2.4,5.9-2.4
		c2.6,0,4.7,0.9,6.4,2.9l2.8-2.4c-2.4-2.8-5.5-4.2-9.2-4.2C8.9,0.4,6,1.5,3.6,3.8S0,9,0,12.5s1.2,6.3,3.6,8.7
		c2.4,2.3,5.4,3.4,8.8,3.4c3.7,0,7-1.6,9.3-4.3l-2.8-2.4C17.2,19.8,15,20.7,12.4,20.7"/>
</g>
<g transform="translate(24.247500, 0.044603)">
	<path class="st0" d="M18.4,18.4c-1.6,1.6-3.5,2.4-5.8,2.4S8.3,20,6.7,18.4s-2.3-3.6-2.3-5.9s0.8-4.3,2.3-5.9
		c1.6-1.6,3.6-2.4,5.9-2.4s4.3,0.8,5.8,2.4c1.6,1.6,2.4,3.6,2.4,5.9C20.8,14.8,20,16.8,18.4,18.4 M12.6,0.4c-3.5,0-6.4,1.2-8.7,3.5
		c-2.4,2.3-3.6,5.2-3.6,8.6s1.2,6.3,3.6,8.6s5.3,3.5,8.7,3.5s6.4-1.2,8.8-3.5s3.6-5.2,3.6-8.6s-1.2-6.3-3.6-8.6
		C19,1.5,16.1,0.4,12.6,0.4"/>
</g>
<g>
	<polygon class="st0" points="74.2,16.9 69,0.8 65.4,0.8 60.2,16.9 54.7,0.8 50.4,0.8 58.3,24.2 62.1,24.2 67.2,8.1 72.3,24.2 
		76,24.2 84,0.8 79.7,0.8 	"/>
</g>
<g>
	<path class="st0" d="M96.6,20.4h-4.7v-6.6h4.7c2.1,0,3.7,1.4,3.7,3.3C100.2,18.9,98.7,20.4,96.6,20.4z M91.9,4.6h3.7
		c1.7,0,3,1.2,3,2.8c0,1.7-1.2,2.9-3,2.9h-3.7V4.6z M99.7,11.5c1.9-0.7,3-2.4,3-4.7c0-1.7-0.6-3.2-1.9-4.3c-1.2-1.1-2.8-1.7-4.6-1.7
		h-8.4v23.4h9.6c2,0,3.7-0.6,5.1-1.9s2-3,2-5C104.4,14.3,102.7,12,99.7,11.5z"/>
</g>
<g transform="translate(107.722500, 0.044603)">
	<path class="st0" d="M18.4,18.4c-1.6,1.6-3.5,2.4-5.8,2.4S8.3,20,6.7,18.4s-2.3-3.6-2.3-5.9s0.8-4.3,2.3-5.9
		c1.6-1.6,3.6-2.4,5.9-2.4s4.3,0.8,5.8,2.4c1.6,1.6,2.4,3.6,2.4,5.9C20.7,14.8,19.9,16.8,18.4,18.4 M12.5,0.4C9,0.4,6.1,1.6,3.8,3.9
		c-2.4,2.3-3.6,5.2-3.6,8.6s1.2,6.3,3.6,8.6s5.3,3.5,8.7,3.5s6.4-1.2,8.8-3.5s3.6-5.2,3.6-8.6s-1.2-6.3-3.6-8.6
		C18.9,1.5,16,0.4,12.5,0.4"/>
</g>
<g>
	<polygon class="st0" points="150.8,0.8 144.1,12.3 137.3,0.8 132.8,0.8 141.8,16 137,24.2 141.6,24.2 146.2,16.4 155.4,0.8 	"/>
</g>
<g transform="translate(151.050000, 16.314444)">
	<path class="st0" d="M3.6,4c0-0.4,0.3-0.7,0.7-0.7S5,3.6,5,4S4.7,4.7,4.3,4.7C3.9,4.7,3.6,4.4,3.6,4 M2.3,3.2L0.4,3.7
		c0,0.2,0,0.3,0,0.5l1.9,0.5c0.1,0,0.2,0.2,0.2,0.3L1.7,6.9C1.8,7,1.9,7.1,2.1,7.2L3.7,6C3.8,6,3.9,6,4,6.1l0.9,1.7
		c0.1,0,0.2,0,0.2,0c0.1,0,0.2,0,0.2-0.1l0.1-2c0-0.2,0.1-0.3,0.3-0.2l1.9,0.4C7.8,5.8,7.9,5.6,8,5.5L6.5,4.2
		c-0.1-0.1-0.1-0.3,0-0.4L8,2.5C7.9,2.4,7.8,2.2,7.7,2.1L5.8,2.4c-0.1,0-0.3-0.1-0.3-0.2l-0.1-2c-0.2,0-0.3-0.1-0.5-0.1L4,1.9
		C3.9,2,3.8,2,3.6,1.9L2.1,0.8C1.9,0.9,1.8,1,1.7,1.1l0.8,1.8C2.5,3,2.4,3.2,2.3,3.2"/>
</g>
</svg>
