<?xml version="1.0" encoding="utf-8"?>
<!-- Generator: Adobe Illustrator 22.1.0, SVG Export Plug-In . SVG Version: 6.00 Build 0)  -->
<svg version="1.1" id="Calque_1" xmlns="http://www.w3.org/2000/svg" xmlns:xlink="http://www.w3.org/1999/xlink" x="0px" y="0px"
	 viewBox="0 0 178 60" style="enable-background:new 0 0 178 60;" xml:space="preserve">
<style type="text/css">
	.st0{fill:#FFFFFF;}
</style>
<title>Trends</title>
<path class="st0" d="M128.7,16.1c0-1.7,1.3-3,3-3h0.2c0.9,0,1.7,0.3,2.5,0.7l0.2,2.7h-0.2c-0.7-2.7-2.4-2.9-2.8-2.9
	c-0.5-0.1-1,0.3-1.1,0.9c0,0,0,0,0,0c0,0.6,0.6,1.3,1.8,1.8c1.5,0.6,2.9,1.6,2.9,3.4c0.1,1.8-1.2,3.3-3,3.4c0,0,0,0,0,0H132
	c-1.1,0-2.2-0.3-3-1c-0.1-0.1-0.2-0.2-0.2-0.3v-3h0.2c0.7,2.8,2.3,3.8,3,3.8c0.5,0.1,1.1-0.2,1.2-0.8c0-0.1,0-0.1,0-0.2
	c0-1.1-1.1-1.6-1.7-1.9C130.6,19.3,128.7,18.7,128.7,16.1L128.7,16.1z M80.7,17.9c-0.1-1.7,0.9-3.4,2.4-4.2c1.2-0.6,2.6-0.8,3.9-0.5
	v-3c0-0.7-0.4-1.4-1.1-1.7V8.3c1.5-0.2,2.9-0.7,4.3-1.4L90.3,7v13.8c0,0.4,0.4,0.8,0.8,0.8l0,0h0.4c0-0.2,0-0.3,0-0.5
	c-0.4-2.4,4.1-4.2,5.2-4.3v-2.2c0-0.7-0.2-1.4-1-1.3c-0.8,0-1.4,0.7-1.3,1.5c0,0.1,0,0.2,0,0.2c0.2,1-0.1,2.6-1.5,2.6
	s-1.5-1.2-1.2-2.2c0.4-0.9,1.1-1.6,2-2c1.1-0.5,2.2-0.7,3.4-0.6c3,0,2.9,2.4,2.9,3.2v4.7c0,0.4,0.2,0.7,0.6,0.8c0.1,0,0.3,0,0.4-0.1
	l0.2,0.2c-0.7,0.7-1.6,1.2-2.6,1.2c-0.7-0.2-1.3-0.6-1.6-1.3c-1,1-4.3,2.4-5.3,0.5c-1.6,0.1-3.1,0.4-4.6,1H87v-1.5
	c-0.7,0.8-1.6,1.3-2.7,1.3c-1.6,0-3.5-1.1-3.5-4.9H80.7z M95.6,21.4c1.3,0,1-1.3,1-2v-2c-1.1,0.3-2,1.2-2.2,2.3
	C94.4,19.9,94.4,21.4,95.6,21.4z M83.9,17.4c0,2,0.5,4.5,2.1,4.2c1-0.2,1-1.5,1-2.4v-3.4c0-0.7-0.2-2.3-1.5-2.2S83.9,15.4,83.9,17.4
	z M62,17.9c0-2.7,2-5,4.3-5c2.2,0,3.9,2,4,4.3H65c0,1.7,1.2,3.5,2.9,3.5c0.9,0.1,1.8-0.3,2.3-1.1h0.2c-0.5,1.8-2.1,3.1-4,3.2
	c-2.4,0-4.3-2.2-4.3-5L62,17.9z M64.9,16.8h2.8c0-1,0-3.5-1.4-3.5s-1.4,2-1.4,3.4V16.8z M115.7,22.8c1.8-0.1,3.4-1.3,4-3l-0.2-0.2
	c-0.5,0.9-1.4,1.3-2.4,1.2c-1.7,0-3-1.7-3-3.7c0-3.4,1.5-3.7,2-3.7c0.4,0,0.7,0.2,0.9,0.5c0.2,0.5,0.2,0.8,0,2
	c-0.2,0.7,0.2,1.5,0.9,1.7c0.2,0,0.3,0,0.5,0c0.8-0.1,1.4-0.9,1.3-1.7c0,0,0,0,0,0c0-0.8-0.4-1.7-1-2.2c-0.8-0.6-1.9-0.9-2.9-0.8
	c-2.3,0-4.4,2.3-4.4,5s2,5,4.4,5L115.7,22.8z M120,17.8c0-2.7,1.9-5,4.3-5c2.2,0,3.8,2,4,4.4h-5.5c0,1.7,1.2,3.5,2.9,3.5
	c0.9,0.1,1.8-0.3,2.3-1.1h0.2c-0.5,1.8-2.1,3.1-4,3.2c-2.3,0-4.3-2.2-4.3-5H120z M122.8,16.8h2.9c0-1,0-3.5-1.4-3.5s-1.5,2-1.4,3.4
	L122.8,16.8z M71.1,16.2v5.2c0,0.4-0.4,0.8-0.8,0.8l0,0h-0.2v0.4h5.3v-0.4h-0.1c-0.4,0-0.8-0.4-0.8-0.8c0,0,0-0.1,0-0.1V16
	c-0.2-0.7,0.2-1.4,0.8-1.6h0.5c1.2,0,1,1.2,1,1.6v5.4c0,0.4-0.4,0.8-0.8,0.8l0,0h0v0.4h5v-0.4l0,0c-0.4,0-0.8-0.4-0.8-0.8
	c0,0,0-0.1,0-0.1v-5c0-2.4-1.3-3.3-2.7-3.4c-1.1,0-2.2,0.5-3,1.3V13l-0.1-0.1c-1.4,0.7-2.9,1.2-4.4,1.4v0.1c0.6,0.3,1,1,1,1.7
	L71.1,16.2z M101.8,16.2v5.2c0,0.4-0.4,0.8-0.8,0.8l0,0h-0.1v0.4h5.3v-0.4H106c-0.4,0-0.8-0.4-0.8-0.8c0,0,0-0.1,0-0.1V16
	c-0.2-0.7,0.2-1.4,0.9-1.6h0.4c1.2,0,1,1.2,1,1.6v5.4c0,0.4-0.4,0.8-0.8,0.8l0,0h-0.1v0.4h5.2v-0.4h-0.2c-0.4,0-0.8-0.4-0.8-0.8
	c0,0,0-0.1,0-0.1v-5c0-2.4-1.2-3.3-2.7-3.4c-1.1,0-2.2,0.5-3,1.3v-1.3c-1.4,0.7-2.9,1.2-4.4,1.4v0.1
	C101.4,14.7,101.8,15.4,101.8,16.2L101.8,16.2z M56.8,20c-0.1,1.5,0.9,2.7,2.4,2.9h0.2c2,0,2.8-0.7,3.3-1.6l-0.1-0.2
	c-0.3,0.6-1,0.9-1.7,0.7c-0.5-0.3-0.8-0.8-0.7-1.4v-6.6h2.1V13h-2v-2.7h-0.1c-1.2,1.3-2.5,2.5-4,3.4v0.2h0.6
	C56.8,13.9,56.8,20,56.8,20z M178,48.6c0,5.6-3.9,11.5-10.8,11.4c-6,0-9-2-10.8-3.5c-4.9,0.4-9.7,1.5-14.3,3.3l-0.3-0.3v-4.8
	c-2.3,2.8-5.8,4.4-9.4,4.3c-5.3,0-12-3.8-12-16.1c0-7.5,3.6-11.8,8-14c4.1-2.1,8.8-2.7,13.3-1.8v-10c0-2.5-1.5-4.7-3.8-5.6v-0.6
	c5.2-0.7,10.3-2.3,15.1-4.6l0.3,0.4v45.5c-0.1,1.5,1.2,2.8,2.7,2.9c0,0,0,0,0,0v-9.7h0.8c2.3,9.6,8,12.7,10.4,13
	c1.9,0,4.1-0.8,4.2-3.5c0.2-3.8-4-5.4-6-6.4c-3.1-1.4-9.7-3.3-9.6-11.7s8.1-9.9,11-9.9c3,0,6,0.8,8.7,2.2l0.8,9h-0.8
	c-2.3-9-8.2-9.6-9.6-9.6c-1,0-3.7,0.3-3.8,3c0,2,2,4.2,6.2,5.9C173.3,39.4,178,42.6,178,48.6L178,48.6z M142.8,46.8V35.7
	c0-2.1-0.3-7.6-5.1-7.4s-5.5,6.1-5.5,12.6s1.8,15,7.5,13.9C143,54,142.8,50,142.8,46.8z M86,48.7c-2,6-7.5,10.1-13.8,10.3
	c-8.3,0-15-7.4-15-16.5c0-1.9,0.4-3.9,1-5.7c-0.5,0.4-1.1,0.6-1.7,0.7c-1.1,0-2.1-0.6-2.7-1.5c-0.4-0.5-1.2-2-2.6-1.8
	c-2.1,0-2.3,3-2.3,4.7V54c-0.1,1.5,1.2,2.8,2.7,2.9c0,0,0.1,0,0.1,0h0.5v1.2H12.1V57h0.7c2.9-0.1,5.2-2.4,5.2-5.3V3.5
	C14.9,3.2,6.9,4.8,0.9,17.3H0L3.2,0h43.3l3.2,17.3H49C43,4.7,35,3.3,32,3.5v47.9c0,1.4,0,4.5,2.7,5.3c2.5-0.8,2.7-3.7,2.7-5V36.9
	c0-2.5-1.6-4.8-4-5.6v-0.6c5.3-0.8,10.4-2.4,15.2-4.7l0.3,0.4v5.4c0.1,0,0.2,0,0.3,0c1.5-3.2,4.3-5.3,7-5.3s4.2,2.5,4.3,5
	c0,0.3,0,0.7,0,1c2.6-3.9,6.9-6.2,11.5-6.4c7.5,0,13.3,6.3,14,14.3H67.3c0.2,5.5,4,11.6,10,11.6s7.2-2.8,8-3.8L86,48.7z M67.3,38.9
	H77c0.1-3.4,0-11.5-4.8-11.4c-4.4,0.1-5,6.8-5,11.4H67.3z M122,57c-1.5,0-2.8-1.3-2.8-2.8c0,0,0,0,0,0v-17c0-7.7-4.2-10.8-9.3-10.9
	c-3.8,0.1-7.5,1.6-10.2,4.2h-0.1v-4l-0.4-0.4c-4.7,2.3-9.8,3.8-15,4.6v0.6c2.3,0.9,3.8,3.1,3.8,5.6v17.2c0.1,1.5-1.2,2.8-2.7,2.9
	c0,0-0.1,0-0.1,0h-0.6v1.2h18.3V57h-0.6c-1.5-0.1-2.7-1.3-2.7-2.8V36.5c0-1.3-0.5-5,3.7-5.4h0.8c4.2,0,3.7,4,3.7,5.4V54
	c0.1,1.5-1.2,2.8-2.7,2.9c0,0,0,0,0,0h-0.6v1.2h18V57H122z"/>
</svg>
