<?xml version="1.0" encoding="utf-8"?>
<!-- Generator: Adobe Illustrator 22.1.0, SVG Export Plug-In . SVG Version: 6.00 Build 0)  -->
<svg version="1.1" id="Calque_1" xmlns="http://www.w3.org/2000/svg" xmlns:xlink="http://www.w3.org/1999/xlink" x="0px" y="0px"
	 viewBox="0 0 111.9 39.1" style="enable-background:new 0 0 111.9 39.1;" xml:space="preserve">
<style type="text/css">
	.st0{fill:#FFFFFF;}
</style>
<title>La Libre</title>
<path class="st0" d="M63.7,32.7V17.8h-4.5v0.6l1.3,0.6v14.9H65v-0.6L63.7,32.7z M24.2,27.5h-1c-0.6,4.3-2.4,5-6.2,5h-3V8.8H8.7v0.5
	l1.6,0.8V34h13.4l0.5-6.4V27.5z M58,27.5h-1c-0.5,4.3-2.4,5-6,5h-3.1V8.8h-5.3v0.5l1.6,0.8V34h13.4l0.4-6.4V27.5z M62,14.8
	c1.2,0,2-1.1,2-2.5c0-1.3-0.8-2.4-2-2.4c-1,0-1.9,1-1.9,2.4S61,14.8,62,14.8 M91.4,20.2v-2.4l-1.1-0.2c-1.1,0-2.4,1-3.6,4.1v-3.9
	h-4.5v0.6l1.3,0.6v14.9H88v-0.6l-1.3-0.6v-9.6C87.2,22.2,88.7,20.5,91.4,20.2 M33,31.4c-0.6,0.5-1.3,0.7-2,0.7c-1.1,0-1.9-1-1.9-2.6
	s1.5-3,4-3.3L33,31.4L33,31.4z M28.9,23c-0.7-2.6,0.8-3.8,2-3.8c1.1,0,2.3,0.8,2.3,2.8v3.3c-5,0.7-7.4,2.1-7.4,5.2
	c0,1.7,1,3.6,3.1,3.6c2,0,3.2-0.6,4.3-1.8V34h4.5v-0.6l-1.3-0.6v-10c0-3.4-2.3-4.8-4.4-4.8c-2.8,0-5.9,1.6-5.9,4.6
	c0,0.4,0.1,1,0.4,1.3c0.8-0.4,1.6-0.6,2.4-0.8 M73.4,33c-1,0-2-0.4-2.7-1V20.5c0.8-0.4,1.6-0.6,2.4-0.6c2.8,0,4.5,3.5,4.5,7.2
	C77.6,31.9,74.9,33.1,73.4,33 M75.2,17.8c-1.2,0-2.4,0.2-4.5,1.7V6.9h-4.9v0.5l1.7,0.8V33c1.4,0.7,4,1.2,5.5,1.2
	c5.8,0,7.7-5.8,7.7-9c0-4.8-2.2-7.3-5.5-7.3"/>
<path class="st0" d="M76.2,11.8H76v1.3h0.2c0.5,0,1-0.2,1-0.7S76.8,11.8,76.2,11.8 M76.3,10.3H76v1c0.5,0,1-0.1,1-0.5
	S76.6,10.3,76.3,10.3 M77.4,13.2c-0.3,0.2-0.7,0.3-1.2,0.3h-0.8V9.9h0.9c0.5,0,1.2,0,1.2,0.8c0,0.3-0.2,0.6-0.6,0.8
	c0.5,0,0.9,0.4,0.9,0.9C77.8,12.7,77.6,13,77.4,13.2 M79.1,13.5V9.9h2.1L81,10.4h-1.3v0.9h1.2l-0.2,0.5h-1V13h1.6v0.5H79.1z
	 M82.6,13.5V9.9h0.6V13h1.5v0.5H82.6z M87.2,13.6c-1,0-1.5-0.8-1.5-1.8c0-1.1,0.5-2,1.8-2l1,0.2l-0.2,0.5l-0.9-0.2
	c-0.8,0-1.1,0.6-1.1,1.5c0,0.8,0.3,1.3,1,1.3L88,13v-1.2l0.6-0.1v1.5C88.3,13.4,87.8,13.6,87.2,13.6 M90.1,9.9h0.6v3.6h-0.6V9.9z
	 M93.8,10.3c-0.7,0-1,0.6-1,1.4c0,0.8,0.2,1.4,1,1.4c0.6,0,1-0.5,1-1.4C94.8,11.1,94.6,10.3,93.8,10.3 M95.1,14.1
	c-0.3,0-0.7-0.2-1.1-0.6h-0.3c-1,0-1.6-0.7-1.6-1.7c0-1.1,0.6-2,1.8-2c1,0,1.5,0.9,1.5,1.8c0,0.8-0.3,1.5-0.9,1.8l0.7,0.2h0.3V14
	h-0.4 M98.1,13.6c-1,0-1.3-0.4-1.3-1.5V9.9h0.6V12c0,0.6,0,1.1,0.7,1.1c0.5,0,0.8-0.1,0.8-1V10h0.6v2.2
	C99.5,13.2,99.1,13.7,98.1,13.6 M101,13.5V9.9h2.1l-0.2,0.5h-1.3v0.9h1.2l-0.2,0.5h-1V13h1.5v0.5H101z M97.5,19c2,0,2.3,2,2.3,5.4
	h-4.9C94.9,21.5,95.3,19.1,97.5,19 M99.3,32.5c-2,0-4.3-2-4.4-7h8.3c0-6-2.9-7.7-5-7.7c-3.4,0-6.7,2.6-6.7,8.5c0,4,2,7.8,6.6,7.8
	c2,0,3.7-0.6,5-1.6l-0.1-0.9C101.9,32.2,100.8,32.6,99.3,32.5"/>
</svg>
