<svg height="26" viewBox="0 0 165 26" width="165" xmlns="http://www.w3.org/2000/svg"><path d="m12.3971108 20.7460317c-2.3452501 0-4.32241505-.7714285-5.89691255-2.3484127-1.574895-1.5761904-2.34525-3.5551587-2.34525-5.9365079 0-2.381746.770355-4.36071427 2.34525-5.93690475 1.5744975-1.57698413 3.55166245-2.38134921 5.89691255-2.38134921 2.5797749 0 4.7242874.93888889 6.3997499 2.85119048l2.8476901-2.44880952c-2.4458175-2.78452381-5.52843-4.19325397-9.24744-4.19325397-3.45109505 0-6.39975005 1.14047619-8.81178005 3.4547619-2.3790375 2.31468254-3.5850525 5.19960318-3.5850525 8.65436507 0 3.4547619 1.206015 6.3396826 3.5850525 8.6539683 2.41203 2.2809523 5.360685 3.4214285 8.81178005 3.4214285 3.6522299 0 7.0027575-1.5765873 9.2812274-4.2603174l-2.8146974-2.4484127c-1.641675 1.9452381-3.8195775 2.9182539-6.46653 2.9182539" transform="translate(0 .044603)"/><path d="m18.4457888 18.431746c-1.5744975 1.5761905-3.5182725 2.3813492-5.829735 2.3813492-2.31186 0-4.28862755-.8051587-5.86352255-2.3813492-1.5744975-1.5769841-2.34525-3.5555555-2.34525-5.9373016 0-2.347619.7707525-4.32658726 2.34525-5.93690472 1.574895-1.60992063 3.55166255-2.41468254 5.86352255-2.41468254 2.3114625 0 4.2552375.80476191 5.829735 2.41468254 1.574895 1.61031746 2.3790375 3.58928572 2.3790375 5.93690472 0 2.3480159-.8041425 4.3269842-2.3790375 5.9373016m-5.829735-18.07976187c-3.45109505 0-6.36596255 1.17380952-8.74500005 3.52222222-2.3790375 2.31428571-3.5850525 5.19920635-3.5850525 8.62023805 0 3.4214286 1.206015 6.3063493 3.5850525 8.620635s5.293905 3.4880952 8.74500005 3.4880952c3.451095 0 6.3993525-1.1738095 8.77839-3.4880952 2.3790374-2.3142857 3.5850524-5.1992064 3.5850524-8.620635 0-3.4210317-1.206015-6.30595234-3.61884-8.62023805-2.3786399-2.3484127-5.2935074-3.52222222-8.7446024-3.52222222" transform="translate(24.2475 .044603)"/><path d="m74.1592695 16.9448413-5.1678975-16.14603178h-3.6065175l-5.1675 16.14603178-5.5296225-16.14603178h-4.3116825l7.949205 23.37976188h3.73173l5.1257625-16.08214283 5.09436 16.08214283h3.76512l7.9488075-23.37976188h-4.3021425z"/><path d="m96.555135 20.388373h-4.6908975v-6.6416667h4.65711c2.1445125 0 3.6860175 1.4087302 3.6860175 3.2873016 0 1.911508-1.541505 3.3543651-3.65223 3.3543651zm-4.6908975-15.79880951h3.71901c1.7422425 0 2.9824425 1.17420635 2.9824425 2.75079365 0 1.71071429-1.2402 2.88452386-3.0158325 2.88452386h-3.68562zm7.8065025 6.87619051c1.876598-.7043651 2.982045-2.4480159 2.982045-4.69563495 0-1.71071429-.636397-3.15317461-1.90959-4.25992064-1.2398025-1.14047619-2.78091-1.71111111-4.62372-1.71111111h-8.4432975v23.3793651h9.5825325c2.043945 0 3.71901-.6373016 5.05938-1.9456349 1.37376-1.3079365 2.043548-2.9849207 2.043548-4.9642858 0-2.9853174-1.708853-5.2662698-4.690898-5.8027777z"/><path d="m18.3648577 18.431746c-1.5744975 1.5761905-3.5182725 2.3813492-5.829735 2.3813492-2.31186 0-4.28902495-.8051587-5.86352245-2.3813492-1.5744975-1.5769841-2.34525-3.5555555-2.34525-5.9373016 0-2.347619.7707525-4.32658726 2.34525-5.93690472 1.5744975-1.60992063 3.55166245-2.41468254 5.86352245-2.41468254 2.3114625 0 4.2552375.80476191 5.829735 2.41468254 1.574895 1.61031746 2.3790376 3.58928572 2.3790376 5.93690472 0 2.3480159-.8041426 4.3269842-2.3790376 5.9373016m-5.829735-18.07976187c-3.45109495 0-6.36596245 1.17380952-8.74499995 3.52222222-2.3790375 2.31428571-3.58545 5.19920635-3.58545 8.62023805 0 3.4214286 1.2064125 6.3063493 3.58545 8.620635s5.293905 3.4880952 8.74499995 3.4880952c3.451095 0 6.3993525-1.1738095 8.77839-3.4880952s3.5850525-5.1992064 3.5850525-8.620635c0-3.4210317-1.206015-6.30595234-3.6188399-8.62023805-2.3786401-2.3484127-5.2935076-3.52222222-8.7446026-3.52222222" transform="translate(107.7225 .044603)"/><path d="m150.764357.80170635-6.699068 11.52619045-6.7257-11.52619045h-4.517985l8.94534 15.23214285-4.737802 8.1468254h4.597882l4.539053-7.7309524 9.188212-15.64801585z"/><path d="m3.569232 3.99448413c0-.40634921.329925-.73571429.736965-.73571429.4066425 0 .7365675.32936508.7365675.73571429 0 .40595238-.329925.73571428-.7365675.73571428-.40704 0-.736965-.3297619-.736965-.73571428m-1.2890925-.76587302-1.89846.51428572c-.010335.16626984-.00795.3345238.00318.50396825l1.89528.51349206c.14628.03928572.2229975.19920635.162975.33769842l-.7802925 1.80119047c.1252125.11309524.258375.21666667.3963075.31269841l1.58364-1.15912698c.1220325-.08928571.294945-.04960317.3660975.08333333l.922995 1.73015873c.0830775-.01309523.166155-.025.24963-.04404762.0830775-.01865079.1625775-.04444444.24327-.06825396l.0798975-1.95833334c.0059625-.15119047.14469-.26150793.2937525-.23373016l1.93026.35833334c.08268-.1468254.1578075-.29722222.2214075-.45357143l-1.485855-1.28452381c-.11448-.09880952-.11448-.2765873 0-.37539683l1.484265-1.28333333c-.0639975-.15753968-.1347525-.30992063-.21624-.45515873l-1.9338375.35873016c-.1490625.02738095-.28779-.08293651-.2937525-.23412698l-.0798975-1.96071429c-.16059-.04801587-.32436-.08571429-.49131-.11309524l-.924585 1.73333333c-.0711525.13333334-.244065.17261905-.366495.08333334l-1.586025-1.16071429c-.13833.09642857-.2699025.2015873-.393525.31428572l.7802925 1.8015873c.0600225.13849206-.016695.2984127-.162975.33769841" transform="translate(151.05 16.314444)"/></svg>