<svg enable-background="new 0 0 165 26" viewBox="0 0 165 26" xmlns="http://www.w3.org/2000/svg"><g fill="#fff"><path d="m12.4 20.7c-2.3 0-4.3-.8-5.9-2.3-1.6-1.6-2.3-3.6-2.3-5.9 0-2.4.8-4.4 2.3-5.9 1.6-1.6 3.6-2.4 5.9-2.4 2.6 0 4.7.9 6.4 2.9l2.8-2.4c-2.4-2.8-5.5-4.2-9.2-4.2-3.5-.1-6.4 1-8.8 3.3s-3.6 5.2-3.6 8.7 1.2 6.3 3.6 8.7c2.4 2.3 5.4 3.4 8.8 3.4 3.7 0 7-1.6 9.3-4.3l-2.8-2.4c-1.7 1.9-3.9 2.8-6.5 2.8" transform="translate(0 .044603)"/><path d="m18.4 18.4c-1.6 1.6-3.5 2.4-5.8 2.4s-4.3-.8-5.9-2.4-2.3-3.6-2.3-5.9.8-4.3 2.3-5.9c1.6-1.6 3.6-2.4 5.9-2.4s4.3.8 5.8 2.4c1.6 1.6 2.4 3.6 2.4 5.9s-.8 4.3-2.4 5.9m-5.8-18c-3.5 0-6.4 1.2-8.7 3.5-2.4 2.3-3.6 5.2-3.6 8.6s1.2 6.3 3.6 8.6 5.3 3.5 8.7 3.5 6.4-1.2 8.8-3.5 3.6-5.2 3.6-8.6-1.2-6.3-3.6-8.6c-2.4-2.4-5.3-3.5-8.8-3.5" transform="translate(24.2475 .044603)"/><path d="m74.2 16.9-5.2-16.1h-3.6l-5.2 16.1-5.5-16.1h-4.3l7.9 23.4h3.8l5.1-16.1 5.1 16.1h3.7l8-23.4h-4.3z"/><path d="m96.6 20.4h-4.7v-6.6h4.7c2.1 0 3.7 1.4 3.7 3.3-.1 1.8-1.6 3.3-3.7 3.3zm-4.7-15.8h3.7c1.7 0 3 1.2 3 2.8 0 1.7-1.2 2.9-3 2.9h-3.7zm7.8 6.9c1.9-.7 3-2.4 3-4.7 0-1.7-.6-3.2-1.9-4.3-1.2-1.1-2.8-1.7-4.6-1.7h-8.4v23.4h9.6c2 0 3.7-.6 5.1-1.9s2-3 2-5c-.1-3-1.8-5.3-4.8-5.8z"/><path d="m18.4 18.4c-1.6 1.6-3.5 2.4-5.8 2.4s-4.3-.8-5.9-2.4-2.3-3.6-2.3-5.9.8-4.3 2.3-5.9c1.6-1.6 3.6-2.4 5.9-2.4s4.3.8 5.8 2.4c1.6 1.6 2.4 3.6 2.4 5.9-.1 2.3-.9 4.3-2.4 5.9m-5.9-18c-3.5 0-6.4 1.2-8.7 3.5-2.4 2.3-3.6 5.2-3.6 8.6s1.2 6.3 3.6 8.6 5.3 3.5 8.7 3.5 6.4-1.2 8.8-3.5 3.6-5.2 3.6-8.6-1.2-6.3-3.6-8.6c-2.4-2.4-5.3-3.5-8.8-3.5" transform="translate(107.7225 .044603)"/><path d="m150.8.8-6.7 11.5-6.8-11.5h-4.5l9 15.2-4.8 8.2h4.6l4.6-7.8 9.2-15.6z"/><path d="m3.6 4c0-.4.3-.7.7-.7s.7.3.7.7-.3.7-.7.7-.7-.3-.7-.7m-1.3-.8-1.9.5v.5l1.9.5c.1 0 .2.2.2.3l-.8 1.9c.1.1.2.2.4.3l1.6-1.2c.1 0 .2 0 .3.1l.9 1.7h.2c.1 0 .2 0 .2-.1l.1-2c0-.2.1-.3.3-.2l1.9.4c.2-.1.3-.3.4-.4l-1.5-1.3c-.1-.1-.1-.3 0-.4l1.5-1.3c-.1-.1-.2-.3-.3-.4l-1.9.3c-.1 0-.3-.1-.3-.2l-.1-2c-.2 0-.3-.1-.5-.1l-.9 1.8c-.1.1-.2.1-.4 0l-1.5-1.1c-.2.1-.3.2-.4.3l.8 1.8c0 .1-.1.3-.2.3" transform="translate(151.05 16.314444)"/></g></svg>